<?xml version="1.0" encoding="utf-8"?>
<!-- Generator: Adobe Illustrator 25.4.1, SVG Export Plug-In . SVG Version: 6.00 Build 0)  -->
<svg version="1.1" id="圖層_1" xmlns="http://www.w3.org/2000/svg" xmlns:xlink="http://www.w3.org/1999/xlink" x="0px" y="0px"
	 viewBox="0 0 50 50" style="enable-background:new 0 0 50 50;" xml:space="preserve">
<style type="text/css">
	.st0{fill:#EC6C00;}
	.st1{fill:#FFFFFF;}
</style>
<g>
	<path class="st0" d="M25,3.2C12.9,3.2,3.2,12.9,3.2,25c0,12.1,9.8,21.8,21.8,21.8c12.1,0,21.8-9.8,21.8-21.8
		C46.8,12.9,37.1,3.2,25,3.2z M35.9,26.1h-9.8v9.8h-2.2v-9.8h-9.8v-2.2h9.8v-9.8h2.2v9.8h9.8V26.1z"/>
	<polygon class="st1" points="26.1,14.1 23.9,14.1 23.9,23.9 14.1,23.9 14.1,26.1 23.9,26.1 23.9,35.9 26.1,35.9 26.1,26.1 
		35.9,26.1 35.9,23.9 26.1,23.9 	"/>
</g>
</svg>
