<?xml version="1.0" encoding="utf-8"?>
<!-- Generator: Adobe Illustrator 25.4.1, SVG Export Plug-In . SVG Version: 6.00 Build 0)  -->
<svg version="1.1" id="Group_762" xmlns="http://www.w3.org/2000/svg" xmlns:xlink="http://www.w3.org/1999/xlink" x="0px" y="0px"
	 viewBox="0 0 50 50" style="enable-background:new 0 0 50 50;" xml:space="preserve">
<style type="text/css">
	.st0{fill:#FFFFFF;}
</style>
<g>
	<path id="Path_46" class="st0" d="M25,3c12.2,0,22,9.8,22,22s-9.8,22-22,22S3,37.2,3,25C3,12.9,12.9,3,25,3z M25,45.2
		c11.1-0.1,20.1-9.2,20-20.3c-0.1-11-9-19.9-20-20l0,0C13.9,4.9,4.9,14,5,25.1C5.1,36.2,14,45.1,25,45.2z"/>
	<path id="Path_47" class="st0" d="M25.5,17.7l1.3-1.3l8,8v1.3l-8,8l-1.3-1.3l6.4-6.4H14v-1.8h18L25.5,17.7z"/>
</g>
</svg>
