<?xml version="1.0" encoding="utf-8"?>
<!-- Generator: Adobe Illustrator 25.4.1, SVG Export Plug-In . SVG Version: 6.00 Build 0)  -->
<svg version="1.1" id="Group_761" xmlns="http://www.w3.org/2000/svg" xmlns:xlink="http://www.w3.org/1999/xlink" x="0px" y="0px"
	 viewBox="0 0 50 50" style="enable-background:new 0 0 50 50;" xml:space="preserve">
<style type="text/css">
	.st0{fill:#FFFFFF;}
</style>
<g>
	<path id="Path_46" class="st0" d="M25,3C12.8,3,3,12.8,3,25s9.8,22,22,22s22-9.8,22-22C47,12.9,37.1,3,25,3z M25,45.2
		C13.9,45.1,4.9,36,5,24.9c0.1-11,9-19.9,20-20l0,0C36.1,4.9,45.1,14,45,25.1C44.9,36.2,36,45.1,25,45.2z"/>
	<path id="Path_47" class="st0" d="M24.5,17.7l-1.3-1.3l-8,8v1.3l8,8l1.3-1.3L18,25.9h18v-1.8H18L24.5,17.7z"/>
</g>
</svg>
