<?xml version="1.0" encoding="utf-8"?>
<!-- Generator: Adobe Illustrator 25.4.1, SVG Export Plug-In . SVG Version: 6.00 Build 0)  -->
<svg version="1.1" id="圖層_1" xmlns="http://www.w3.org/2000/svg" xmlns:xlink="http://www.w3.org/1999/xlink" x="0px" y="0px"
	 viewBox="0 0 50 50" style="enable-background:new 0 0 50 50;" xml:space="preserve">
<style type="text/css">
	.st0{fill:#FFFFFF;}
</style>
<path id="Path_45" class="st0" d="M25,2.6C12.6,2.6,2.6,12.6,2.6,25c0,12.4,10,22.4,22.4,22.4c12.4,0,22.4-10,22.4-22.4c0,0,0,0,0,0
	C47.4,12.6,37.4,2.6,25,2.6C25,2.6,25,2.6,25,2.6z M34,21L23.3,31.7c-0.9,0.9-2.3,0.9-3.1,0c0,0,0,0,0,0l-4.6-4.6
	c-0.9-0.9-0.8-2.3,0.1-3.2c0.9-0.8,2.2-0.8,3.1,0l3.1,3.1l9.2-9.2c0.9-0.9,2.3-0.9,3.2-0.1C35,18.6,35,20,34,21
	C34.1,20.9,34.1,21,34,21L34,21z"/>
</svg>
