<?xml version="1.0" encoding="utf-8"?>
<!-- Generator: Adobe Illustrator 25.4.1, SVG Export Plug-In . SVG Version: 6.00 Build 0)  -->
<svg version="1.1" id="圖層_1" xmlns="http://www.w3.org/2000/svg" xmlns:xlink="http://www.w3.org/1999/xlink" x="0px" y="0px"
	 viewBox="0 0 50 50" style="enable-background:new 0 0 50 50;" xml:space="preserve">
<style type="text/css">
	.st0{fill:#EC6C00;}
	.st1{fill:#FFFFFF;}
</style>
<g>
	<path class="st0" d="M39.6,10.9l-0.4-0.4c-7.8-7.8-20.5-7.8-28.3,0l-0.4,0.4c-7.8,7.8-7.8,20.5,0,28.3l0.4,0.4
		c7.8,7.8,20.5,7.8,28.3,0l0.4-0.4C47.4,31.3,47.4,18.7,39.6,10.9z M31.6,32.7L25,26.1l-6.6,6.6l-1.1-1.1l6.6-6.6l-6.6-6.6l1.1-1.1
		l6.6,6.6l6.6-6.6l1.1,1.1L26.1,25l6.6,6.6L31.6,32.7z"/>
	<polygon class="st1" points="32.7,18.4 31.6,17.3 25,23.9 18.4,17.3 17.3,18.4 23.9,25 17.3,31.6 18.4,32.7 25,26.1 31.6,32.7 
		32.7,31.6 26.1,25 	"/>
</g>
</svg>
