<?xml version="1.0" encoding="utf-8"?>
<!-- Generator: Adobe Illustrator 25.4.1, SVG Export Plug-In . SVG Version: 6.00 Build 0)  -->
<svg version="1.1" id="圖層_1" xmlns="http://www.w3.org/2000/svg" xmlns:xlink="http://www.w3.org/1999/xlink" x="0px" y="0px"
	 viewBox="0 0 50 50" style="enable-background:new 0 0 50 50;" xml:space="preserve">
<style type="text/css">
	.st0{fill:#7B7B7B;}
</style>
<g>
	<path class="st0" d="M40.4,1.5H9.6c-4.4,0-8.1,3.6-8.1,8.1v30.9c0,4.4,3.6,8.1,8.1,8.1h30.9c4.4,0,8.1-3.6,8.1-8.1V9.6
		C48.5,5.1,44.9,1.5,40.4,1.5z M46.3,40.4c0,3.2-2.6,5.8-5.8,5.8H9.6c-3.2,0-5.8-2.6-5.8-5.8V9.6c0-3.2,2.6-5.8,5.8-5.8h30.9
		c3.2,0,5.8,2.6,5.8,5.8V40.4z"/>
	<path class="st0" d="M17.9,10.5h-3.7c-2.1,0-3.7,1.7-3.7,3.7v3.7c0,2.1,1.7,3.7,3.7,3.7h3.7c2.1,0,3.7-1.7,3.7-3.7v-3.7
		C21.6,12.1,20,10.5,17.9,10.5z"/>
	<path class="st0" d="M35.8,10.5h-3.7c-2.1,0-3.7,1.7-3.7,3.7v3.7c0,2.1,1.7,3.7,3.7,3.7h3.7c2.1,0,3.7-1.7,3.7-3.7v-3.7
		C39.5,12.1,37.9,10.5,35.8,10.5z"/>
	<path class="st0" d="M17.9,28.4h-3.7c-2.1,0-3.7,1.7-3.7,3.7v3.7c0,2.1,1.7,3.7,3.7,3.7h3.7c2.1,0,3.7-1.7,3.7-3.7v-3.7
		C21.6,30,20,28.4,17.9,28.4z"/>
	<path class="st0" d="M35.8,28.4h-3.7c-2.1,0-3.7,1.7-3.7,3.7v3.7c0,2.1,1.7,3.7,3.7,3.7h3.7c2.1,0,3.7-1.7,3.7-3.7v-3.7
		C39.5,30,37.9,28.4,35.8,28.4z"/>
</g>
</svg>
