<?xml version="1.0" encoding="utf-8"?>
<!-- Generator: Adobe Illustrator 25.4.1, SVG Export Plug-In . SVG Version: 6.00 Build 0)  -->
<svg version="1.1" id="圖層_1" xmlns="http://www.w3.org/2000/svg" xmlns:xlink="http://www.w3.org/1999/xlink" x="0px" y="0px"
	 viewBox="0 0 50 50" style="enable-background:new 0 0 50 50;" xml:space="preserve">
<style type="text/css">
	.st0{fill:#EC6C00;}
	.st1{fill:#FFFFFF;}
</style>
<g>
	<path class="st0" d="M46.7,25c0-11.9-9.7-21.7-21.7-21.7S3.3,13.1,3.3,25S13.1,46.7,25,46.7S46.7,36.9,46.7,25z M32.7,34.9
		c0,1.5-1.2,2.7-2.7,2.7H20c-1.5,0-2.7-1.2-2.7-2.7V22.7c0.7,0,1.4,0.6,1.4,1.4v3.8c0,0,0,0.1,0,0.1c0,0.9,0.8,1.6,1.6,1.5
		s1.6-0.8,1.5-1.6v-2.3c0-0.4,0.3-0.7,0.7-0.7s0.7,0.3,0.7,0.7c0,0,0,0.1,0,0.1c0,0.9,0.8,1.6,1.6,1.5c0.9,0,1.6-0.8,1.5-1.6v-1.6
		c0-0.4,0.1-0.7,0.4-1v0c0.3-0.3,0.6-0.4,1-0.4h5V34.9z M22.5,24.1c-0.9,0-1.6,0.8-1.5,1.6v2.3c0,0.4-0.3,0.7-0.7,0.7h0
		c-0.4,0-0.7-0.3-0.7-0.7v-3.8c0-0.5-0.2-1-0.5-1.4h6.8c-0.3,0.4-0.5,0.9-0.5,1.4v1.6c0,0.4-0.3,0.7-0.7,0.7c-0.4,0-0.7-0.3-0.7-0.7
		c0,0,0-0.1,0-0.1C24.1,24.7,23.3,24,22.5,24.1z M33.6,21.8H16.4v-1.4h17.1V21.8z M35.8,21.8h-1.4v-0.9h0.4c-0.2-4.8-4.2-8.6-9-8.6
		h-1.8c-4.8,0-8.8,3.8-9,8.6h0.5v0.9h-1.4v-0.5c0-5.5,4.4-9.9,9.9-9.9h1.8l0,0c5.5,0,9.9,4.4,9.9,9.9V21.8z"/>
	<path class="st1" d="M25,2C12.3,2,2,12.3,2,25s10.3,23,23,23s23-10.3,23-23S37.7,2,25,2z M3.3,25C3.3,13.1,13.1,3.3,25,3.3
		S46.7,13.1,46.7,25S36.9,46.7,25,46.7S3.3,36.9,3.3,25z"/>
	<path class="st1" d="M26.7,23.1L26.7,23.1c-0.3,0.3-0.4,0.6-0.4,1v1.6c0,0.9-0.7,1.6-1.5,1.6c-0.9,0-1.6-0.7-1.6-1.5
		c0,0,0-0.1,0-0.1c0-0.4-0.3-0.7-0.7-0.7s-0.7,0.3-0.7,0.7v2.3c0,0.9-0.7,1.6-1.5,1.6s-1.6-0.7-1.6-1.5c0,0,0-0.1,0-0.1v-3.8
		c0-0.7-0.6-1.4-1.4-1.4v12.2c0,1.5,1.2,2.7,2.7,2.7H30c1.5,0,2.7-1.2,2.7-2.7V22.7h-5C27.3,22.7,27,22.9,26.7,23.1z"/>
	<rect x="16.4" y="20.5" class="st1" width="17.1" height="1.4"/>
	<path class="st1" d="M24.8,26.4c0.4,0,0.7-0.3,0.7-0.7v-1.6c0-0.5,0.2-1,0.5-1.4h-6.8c0.3,0.4,0.5,0.9,0.5,1.4v3.8
		c0,0.4,0.3,0.7,0.7,0.7h0c0.4,0,0.7-0.3,0.7-0.7v-2.3c0-0.9,0.7-1.6,1.5-1.6c0.9,0,1.6,0.7,1.6,1.5c0,0,0,0.1,0,0.1
		C24.1,26,24.4,26.4,24.8,26.4z"/>
	<path class="st1" d="M25.9,11.5L25.9,11.5l-1.8,0c-5.5,0-9.9,4.4-9.9,9.9v0.5h1.4v-0.9h-0.5c0.2-4.8,4.2-8.6,9-8.6h1.8
		c4.8,0,8.8,3.8,9,8.6h-0.4v0.9h1.4v-0.5C35.8,15.9,31.4,11.5,25.9,11.5z"/>
</g>
</svg>
