<?xml version="1.0" encoding="utf-8"?>
<!-- Generator: Adobe Illustrator 25.4.1, SVG Export Plug-In . SVG Version: 6.00 Build 0)  -->
<svg version="1.1" id="Group_589" xmlns="http://www.w3.org/2000/svg" xmlns:xlink="http://www.w3.org/1999/xlink" x="0px" y="0px"
	 viewBox="0 0 50 50" style="enable-background:new 0 0 50 50;" xml:space="preserve">
<style type="text/css">
	.st0{fill:#FFFFFF;}
</style>
<g>
	<path id="Path_53" class="st0" d="M28.1,22.5c-0.4,0.4-0.7,1.1-0.7,1.7V27c0,1.5-1.2,2.8-2.7,2.9c-1.5,0-2.8-1.2-2.9-2.7
		c0-0.1,0-0.1,0-0.2c0-0.7-0.5-1.2-1.2-1.2s-1.2,0.5-1.2,1.2v4c0,1.5-1.2,2.8-2.7,2.9c-1.5,0-2.8-1.2-2.9-2.7c0-0.1,0-0.1,0-0.2
		v-6.8c0-1.3-1.1-2.4-2.4-2.4v21.5c0,2.6,2.1,4.8,4.8,4.8h17.5c2.6,0,4.8-2.1,4.8-4.8V21.8h-8.8C29.1,21.8,28.5,22.1,28.1,22.5
		L28.1,22.5z"/>
	<path id="Path_54" class="st0" d="M9.9,17.8h30.3v2.4H9.9V17.8z"/>
	<path id="Path_55" class="st0" d="M16.6,32.2c0.7,0,1.2-0.5,1.2-1.2v-4c0-1.5,1.2-2.8,2.7-2.9c1.5,0,2.8,1.2,2.9,2.7
		c0,0.1,0,0.1,0,0.2c0,0.7,0.5,1.2,1.2,1.2s1.2-0.5,1.2-1.2v-2.8c0-0.9,0.3-1.7,0.8-2.4H14.6c0.5,0.7,0.8,1.5,0.8,2.4V31
		C15.4,31.6,16,32.2,16.6,32.2L16.6,32.2z"/>
	<path id="Path_56" class="st0" d="M26.6,1.9h-3.2c-9.7,0-17.5,7.8-17.5,17.5v0.8h2.4v-1.6H7.5c0.4-8.5,7.4-15.1,15.9-15.1h3.2
		c8.5,0,15.5,6.6,15.9,15.1h-0.8v1.6h2.4v-0.8C44.1,9.8,36.3,1.9,26.6,1.9L26.6,1.9L26.6,1.9z"/>
</g>
</svg>
