<?xml version="1.0" encoding="utf-8"?>
<!-- Generator: Adobe Illustrator 25.4.1, SVG Export Plug-In . SVG Version: 6.00 Build 0)  -->
<svg version="1.1" id="圖層_1" xmlns="http://www.w3.org/2000/svg" xmlns:xlink="http://www.w3.org/1999/xlink" x="0px" y="0px"
	 viewBox="0 0 50 50" style="enable-background:new 0 0 50 50;" xml:space="preserve">
<style type="text/css">
	.st0{fill:#FFFFFF;}
</style>
<g>
	<path class="st0" d="M25,48.5C12,48.5,1.5,38,1.5,25S12,1.5,25,1.5S48.5,12,48.5,25S38,48.5,25,48.5z M25,2.5
		C12.6,2.5,2.5,12.6,2.5,25c0,12.4,10.1,22.5,22.5,22.5c12.4,0,22.5-10.1,22.5-22.5C47.5,12.6,37.4,2.5,25,2.5z"/>
	<g id="Group_640" transform="translate(-5654 3983)">
		<g id="Group_589" transform="translate(5523.003 -3993.5)">
			<path id="Path_53" class="st0" d="M157.8,33.6c-0.3,0.3-0.4,0.6-0.4,1v1.6c0,0.9-0.7,1.6-1.6,1.7c-0.9,0-1.6-0.7-1.7-1.6
				c0,0,0-0.1,0-0.1c0-0.4-0.3-0.7-0.7-0.7s-0.7,0.3-0.7,0.7v2.3c0,0.9-0.7,1.6-1.6,1.7c-0.9,0-1.6-0.7-1.7-1.6c0,0,0-0.1,0-0.1
				v-3.9c0-0.8-0.6-1.4-1.4-1.4v12.5c0,1.5,1.2,2.8,2.8,2.8h10.2c1.5,0,2.8-1.2,2.8-2.8V33.2h-5.1C158.4,33.2,158.1,33.3,157.8,33.6
				L157.8,33.6z"/>
			<path id="Path_54" class="st0" d="M147.2,30.9h17.7v1.4h-17.7V30.9z"/>
			<path id="Path_55" class="st0" d="M151.1,39.2c0.4,0,0.7-0.3,0.7-0.7v-2.3c0-0.9,0.7-1.6,1.6-1.7c0.9,0,1.6,0.7,1.7,1.6
				c0,0,0,0.1,0,0.1c0,0.4,0.3,0.7,0.7,0.7s0.7-0.3,0.7-0.7v-1.6c0-0.5,0.2-1,0.5-1.4h-7c0.3,0.4,0.5,0.9,0.5,1.4v3.9
				C150.4,38.9,150.7,39.2,151.1,39.2L151.1,39.2z"/>
			<path id="Path_56" class="st0" d="M156.9,21.6h-1.9c-5.6,0-10.2,4.6-10.2,10.2v0.5h1.4v-0.9h-0.5c0.2-4.9,4.3-8.8,9.3-8.8h1.9
				c5,0,9,3.9,9.3,8.8h-0.5v0.9h1.4v-0.5C167.2,26.1,162.6,21.6,156.9,21.6L156.9,21.6L156.9,21.6z"/>
		</g>
	</g>
</g>
</svg>
