<?xml version="1.0" encoding="utf-8"?>
<!-- Generator: Adobe Illustrator 25.4.1, SVG Export Plug-In . SVG Version: 6.00 Build 0)  -->
<svg version="1.1" id="Group_558" xmlns="http://www.w3.org/2000/svg" xmlns:xlink="http://www.w3.org/1999/xlink" x="0px" y="0px"
	 viewBox="0 0 50 50" style="enable-background:new 0 0 50 50;" xml:space="preserve">
<style type="text/css">
	.st0{fill:#7B7B7B;}
</style>
<g>
	<path id="Path_48" class="st0" d="M44.2,9.5H32.7V7.2c0-2.4-1.9-4.3-4.3-4.3h-6.9c-2.4,0-4.3,1.9-4.3,4.3v2.3H5.8
		c-1-0.1-1.9,0.6-2,1.6c-0.1,1,0.6,1.9,1.6,2c0.1,0,0.3,0,0.4,0h3.7v27.2c0,3.7,3,6.7,6.7,6.7c0,0,0,0,0,0h17.5c3.7,0,6.7-3,6.7-6.7
		c0,0,0,0,0,0V13.2h3.7c1,0.1,1.9-0.6,2-1.6c0.1-1-0.6-1.9-1.6-2C44.5,9.5,44.3,9.5,44.2,9.5L44.2,9.5z M20.9,7.2
		c0-0.3,0.3-0.6,0.6-0.6h6.9c0.3,0,0.6,0.3,0.6,0.6v2.3h-8.2V7.2z M36.8,40.4L36.8,40.4c0,1.7-1.4,3-3,3c0,0,0,0,0,0H16.2
		c-1.7,0-3-1.4-3-3V13.2h23.6L36.8,40.4z"/>
	<path id="Path_49" class="st0" d="M29.6,39c1,0,1.8-0.8,1.8-1.8v0V19c-0.1-1-1-1.7-2-1.6c-0.9,0.1-1.5,0.8-1.6,1.6v18.2
		C27.8,38.2,28.6,39,29.6,39L29.6,39L29.6,39z"/>
	<path id="Path_50" class="st0" d="M20.4,39c1,0,1.8-0.8,1.8-1.8v0V19c-0.1-1-1-1.7-2-1.6c-0.9,0.1-1.5,0.8-1.6,1.6v18.2
		C18.6,38.2,19.4,39,20.4,39L20.4,39L20.4,39z"/>
</g>
</svg>
