<?xml version="1.0" encoding="utf-8"?>
<!-- Generator: Adobe Illustrator 25.4.1, SVG Export Plug-In . SVG Version: 6.00 Build 0)  -->
<svg version="1.1" id="圖層_1" xmlns="http://www.w3.org/2000/svg" xmlns:xlink="http://www.w3.org/1999/xlink" x="0px" y="0px"
	 viewBox="0 0 50 50" style="enable-background:new 0 0 50 50;" xml:space="preserve">
<style type="text/css">
	.st0{fill-rule:evenodd;clip-rule:evenodd;fill:#FFFFFF;}
</style>
<path id="Path_70" class="st0" d="M20.3,18.9c-5.2,1.6-6.1-3.2-6.1,6c0,3.8,4.6,0.8,6,2.4c1,2.2,0,14.2,0.4,17.9
	c1.9,0.4,3.9,0.4,5.8,0.3c2.9,0,2-2.1,2-8.4c0-1.7,0-3.4,0-5.1c0-0.7-0.1-1.7,0-2.4c0-0.2,0-0.9,0.1-1.1c0.5-2.3,2.4-1.3,6.1-1.7
	l1-6c0-2.9-3.8-1.2-7.1-1.8c-0.2-3.9-0.7-7.2,2.8-7.6c4-0.5,5.1,2.4,4.5-6.6C18.5,2.3,21.4,11.4,20.3,18.9L20.3,18.9z"/>
</svg>
