<svg xmlns="http://www.w3.org/2000/svg" width="60" height="60" viewBox="0 0 60 60">
  <g id="Group_780" data-name="Group 780" transform="translate(177.093 -660.904)">
    <path id="Path_1" data-name="Path 1" d="M-166.133,676.931v22.682a5.478,5.478,0,0,1,3.061-.931h29.539V670h-25.672A6.934,6.934,0,0,0-166.133,676.931Zm26.99,2.449a1.225,1.225,0,0,1-1.225,1.225H-159.3a1.225,1.225,0,0,1-1.225-1.225,1.225,1.225,0,0,1,1.225-1.225h18.93A1.225,1.225,0,0,1-139.143,679.38Z" transform="translate(2.74 2.275)" fill="#fff"/>
    <path id="Path_2" data-name="Path 2" d="M-163.072,694.908a3.064,3.064,0,0,0-3.061,3.06,3.064,3.064,0,0,0,3.061,3.06h26.182a5.474,5.474,0,0,1-.93-3.06,5.473,5.473,0,0,1,.93-3.06Z" transform="translate(2.74 8.501)" fill="#fff"/>
    <path id="Path_3" data-name="Path 3" d="M-147.093,660.9a30,30,0,0,0-30,30,30,30,0,0,0,30,30,30,30,0,0,0,30-30A30,30,0,0,0-147.093,660.9Zm18.75,41.279a1.226,1.226,0,0,1-1.225,1.226,3.063,3.063,0,0,0-3.06,3.06,3.063,3.063,0,0,0,3.06,3.06,1.225,1.225,0,0,1,1.225,1.225,1.226,1.226,0,0,1-1.225,1.226h-30.764a5.518,5.518,0,0,1-5.511-5.511V679.206a9.388,9.388,0,0,1,9.378-9.377h26.9a1.225,1.225,0,0,1,1.225,1.225Z" transform="translate(0 0)" fill="#fff"/>
  </g>
</svg>
