<svg xmlns="http://www.w3.org/2000/svg" width="60" height="60" viewBox="0 0 60 60">
  <g id="Group_777" data-name="Group 777" transform="translate(174.415 -725.71)">
    <path id="Path_4" data-name="Path 4" d="M-147.474,756.338l.887-.887h0l4.08-4.08-7.345-7.345-3.765,3.765v2.735l.166-.166Z" transform="translate(5.199 4.579)" fill="#fff"/>
    <path id="Path_5" data-name="Path 5" d="M-136.987,746.185a1.364,1.364,0,0,0,.4-.971,1.365,1.365,0,0,0-.4-.972l-5.4-5.4a1.377,1.377,0,0,0-1.945,0l-5.041,5.041,7.345,7.345Z" transform="translate(6.261 3.182)" fill="#fff"/>
    <path id="Path_6" data-name="Path 6" d="M-154.66,736.453H-162.3a1.375,1.375,0,0,0-1.374,1.374v6.339h10.386v-6.339A1.375,1.375,0,0,0-154.66,736.453Z" transform="translate(2.686 2.686)" fill="#fff"/>
    <path id="Path_7" data-name="Path 7" d="M-163.671,764.4a1.376,1.376,0,0,0,1.374,1.375h9.013V751.73h-10.386Zm5.193-6.339a2.082,2.082,0,0,1,2.082,2.081,2.083,2.083,0,0,1-2.082,2.083,2.082,2.082,0,0,1-2.081-2.083A2.082,2.082,0,0,1-158.478,758.064Z" transform="translate(2.686 6.505)" fill="#fff"/>
    <path id="Path_8" data-name="Path 8" d="M-163.671,751.39h10.387v-7.023h-10.387Z" transform="translate(2.686 4.664)" fill="#fff"/>
    <path id="Path_9" data-name="Path 9" d="M-144.415,725.71a30,30,0,0,0-30,30,30,30,0,0,0,30,30,30,30,0,0,0,30-30A30,30,0,0,0-144.415,725.71Zm18.75,45.2a3.559,3.559,0,0,1-3.555,3.555h-30.391a3.558,3.558,0,0,1-3.554-3.555v-30.4a3.558,3.558,0,0,1,3.554-3.555h7.637a3.559,3.559,0,0,1,3.555,3.555v8.774l8.806-8.8a3.56,3.56,0,0,1,5.027,0l5.4,5.4a3.529,3.529,0,0,1,1.041,2.514,3.531,3.531,0,0,1-1.041,2.513l-8.8,8.8h8.766a3.558,3.558,0,0,1,3.555,3.554Z" transform="translate(0 0)" fill="#fff"/>
    <path id="Path_10" data-name="Path 10" d="M-137.052,754.655h-6.033v10.391h6.033a1.376,1.376,0,0,0,1.374-1.375v-7.642A1.375,1.375,0,0,0-137.052,754.655Z" transform="translate(7.832 7.236)" fill="#fff"/>
    <path id="Path_11" data-name="Path 11" d="M-153.618,762.907v2.138h10.986V754.655h-2.733Z" transform="translate(5.199 7.236)" fill="#fff"/>
    <path id="Path_12" data-name="Path 12" d="M-153.618,751.427v9.2l4.6-4.6Z" transform="translate(5.199 6.429)" fill="#fff"/>
  </g>
</svg>
