<svg xmlns="http://www.w3.org/2000/svg" width="60" height="60" viewBox="0 0 60 60">
  <g id="Group_782" data-name="Group 782" transform="translate(174.415 -798.204)">
    <path id="Path_13" data-name="Path 13" d="M-146.423,826.715h0v-.1a1.077,1.077,0,0,0,.581-.169l-6.08-6.081a.838.838,0,0,1,0-1.184.831.831,0,0,1,.591-.245.836.836,0,0,1,.592.245l6.1,6.1.746-.746a1.054,1.054,0,0,0,.309-.748,1.053,1.053,0,0,0-.309-.746l-10.705-10.7a1.053,1.053,0,0,0-.746-.309,1.054,1.054,0,0,0-.747.309l-1.783,1.784a1.052,1.052,0,0,0-.307.748,1.051,1.051,0,0,0,.306.745l10.7,10.7a1.08,1.08,0,0,0,.747.3Zm-6.107-8.147a.827.827,0,0,1-.591.246.838.838,0,0,1-.584-.238l-.449-.449a.842.842,0,0,1,.011-1.172.834.834,0,0,1,.592-.245.834.834,0,0,1,.583.236l.449.449A.84.84,0,0,1-152.53,818.568Z" transform="translate(4.059 3.455)" fill="#fff"/>
    <path id="Path_14" data-name="Path 14" d="M-140.638,828.51c4.087,0,6-1.106,6.171-1.39-.174-.284-2.084-1.39-6.171-1.39s-6,1.105-6.171,1.39c.174.284,2.085,1.39,6.171,1.39Z" transform="translate(6.901 6.882)" fill="#fff"/>
    <path id="Path_15" data-name="Path 15" d="M-148.729,829.107c.006.149,0,.291,0,.418-.008.227-.015.443.06.52a.486.486,0,0,0,.313.075h.016v-1.2h-.005C-148.724,828.918-148.727,829.022-148.729,829.107Z" transform="translate(6.419 7.679)" fill="#fff"/>
    <path id="Path_16" data-name="Path 16" d="M-158.57,817.593a2.318,2.318,0,0,0-.675,1.64,2.314,2.314,0,0,0,.675,1.639,3.3,3.3,0,0,1,.952,2.413,3.305,3.305,0,0,1-1.092,2.354,42.454,42.454,0,0,1-5.926,4.414,2.78,2.78,0,0,0-1.308,1.634,2.929,2.929,0,0,0,.451,2.706,2.947,2.947,0,0,0,2.33,1.154c.054,0,.109,0,.163,0a2.932,2.932,0,0,0,2.351-1.419,42.857,42.857,0,0,1,4.448-5.974,3.234,3.234,0,0,1,2.344-1.1h.081a3.319,3.319,0,0,1,2.343.963,2.307,2.307,0,0,0,1.639.677,2.3,2.3,0,0,0,1.638-.677l1.639-1.637-10.414-10.415Z" transform="translate(2.08 4.438)" fill="#fff"/>
    <path id="Path_17" data-name="Path 17" d="M-144.415,798.2a30,30,0,0,0-30,30,30,30,0,0,0,30,30,30,30,0,0,0,30-30A30,30,0,0,0-144.415,798.2Zm-.479,35.426a3.964,3.964,0,0,1-2.821,1.168,3.964,3.964,0,0,1-2.823-1.168,1.6,1.6,0,0,0-1.135-.467h-.044a1.616,1.616,0,0,0-1.152.535,35.346,35.346,0,0,0-3.381,4.4c-.519.759-1.009,1.475-1.56,2.2l-.009.011-.011.011a4.627,4.627,0,0,1-3.265,1.339c-.084,0-.169,0-.252-.008a4.665,4.665,0,0,1-3.356-1.71,4.721,4.721,0,0,1-.9-3.662,4.721,4.721,0,0,1,2.077-3.154,41.221,41.221,0,0,0,5.79-4.305,1.619,1.619,0,0,0,.533-1.151,1.609,1.609,0,0,0-.467-1.179,3.988,3.988,0,0,1-1.161-2.822,3.985,3.985,0,0,1,1.161-2.821l1.949-1.949a2.707,2.707,0,0,1,.021-1.292,2.7,2.7,0,0,1,.706-1.219l1.785-1.785a2.707,2.707,0,0,1,1.92-.794,2.711,2.711,0,0,1,.492.045l3.785-5.677a2.714,2.714,0,0,1,2-1.2c.09-.009.18-.014.269-.014a2.747,2.747,0,0,1,1.93.8l4.166,4.166a.84.84,0,0,1,.14,1l-.807,1.453,1.454-.807a.836.836,0,0,1,.406-.1.836.836,0,0,1,.592.245l2.223,2.224c.289.241.271.76.254,1.261,0,.1-.006.2-.008.285h.954a.839.839,0,0,1,.591.245l1.045,1.045a2.737,2.737,0,0,1,.776,2.2,2.734,2.734,0,0,1-1.194,2l-5.678,3.786a2.706,2.706,0,0,1-.749,2.413l-1.784,1.782a2.734,2.734,0,0,1-1.934.8,2.816,2.816,0,0,1-.579-.071Zm20.921,5.664a2.27,2.27,0,0,1-1.454.526c-.041,0-.081,0-.123,0v5.352a3.362,3.362,0,0,1-.569,1.958,3.378,3.378,0,0,1-1.6,1.277,17.874,17.874,0,0,1-6.021,1.041,17.875,17.875,0,0,1-6.075-1.061,3.343,3.343,0,0,1-1.562-1.274,3.331,3.331,0,0,1-.55-1.934v-5.36q-.062,0-.124,0a2.28,2.28,0,0,1-1.454-.526,2.275,2.275,0,0,1-.817-1.7v-.8a2.273,2.273,0,0,1,.817-1.7,2.279,2.279,0,0,1,1.454-.526q.062,0,.124,0V834c0-1.1.929-2.006,2.688-2.614a17.5,17.5,0,0,1,5.5-.785,17.5,17.5,0,0,1,5.5.785c1.759.608,2.687,1.511,2.687,2.614v.591h.191a2.188,2.188,0,0,1,1.556.646,2.182,2.182,0,0,1,.645,1.556v.8A2.271,2.271,0,0,1-123.973,839.294Z" transform="translate(0)" fill="#fff"/>
    <path id="Path_18" data-name="Path 18" d="M-135.131,828.922h-.191v1.189h.005c.357,0,.376-.094.379-.19a2.569,2.569,0,0,1,0-.353c.011-.211.025-.5-.066-.6A.172.172,0,0,0-135.131,828.922Z" transform="translate(9.773 7.68)" fill="#fff"/>
    <path id="Path_19" data-name="Path 19" d="M-143.707,823.183l5.536-3.69a1.061,1.061,0,0,0,.461-.776,1.056,1.056,0,0,0-.3-.849l-.8-.8h-1.437a.825.825,0,0,1-.591-.245.826.826,0,0,1-.245-.591v-1.437l-1.539-1.539-3.462,1.924a.841.841,0,0,1-.406.1.829.829,0,0,1-.592-.245.842.842,0,0,1-.14-1l1.924-3.463-3.719-3.719a1.056,1.056,0,0,0-.746-.306h0a.944.944,0,0,0-.1.005,1.062,1.062,0,0,0-.775.461l-3.691,5.538c1.734,1.732,4.458,4.456,6.913,6.911Z" transform="translate(5.02 2.087)" fill="#fff"/>
    <path id="Path_20" data-name="Path 20" d="M-146.815,831.932v4.825a1.366,1.366,0,0,0,.2.781,1.359,1.359,0,0,0,.589.527,15.921,15.921,0,0,0,5.391.938,15.932,15.932,0,0,0,5.339-.917,1.374,1.374,0,0,0,.63-.534,1.372,1.372,0,0,0,.21-.807v-4.815a10.625,10.625,0,0,1-6.18,1.805A10.628,10.628,0,0,1-146.815,831.932Z" transform="translate(6.9 8.431)" fill="#fff"/>
    <path id="Path_21" data-name="Path 21" d="M-140.638,832.526a7.817,7.817,0,0,0,6.18-2.516V828.7a15.452,15.452,0,0,1-5.694,1.081c-.164,0-.328,0-.478-.008s-.328.008-.491.008a15.43,15.43,0,0,1-5.7-1.083v1.311A7.818,7.818,0,0,0-140.638,832.526Z" transform="translate(6.9 7.624)" fill="#fff"/>
  </g>
</svg>
