<?xml version="1.0" encoding="utf-8"?>
<!-- Generator: Adobe Illustrator 25.4.1, SVG Export Plug-In . SVG Version: 6.00 Build 0)  -->
<svg version="1.1" id="Group_523" xmlns="http://www.w3.org/2000/svg" xmlns:xlink="http://www.w3.org/1999/xlink" x="0px" y="0px"
	 viewBox="0 0 50 50" style="enable-background:new 0 0 50 50;" xml:space="preserve">
<style type="text/css">
	.st0{fill:#EC6C00;}
</style>
<g>
	<path id="Path_31" class="st0" d="M25,2.2C12.4,2.2,2.2,12.4,2.2,25S12.4,47.8,25,47.8S47.8,37.6,47.8,25l0,0
		C47.7,12.4,37.6,2.3,25,2.2z M25,42.1c-9.4,0-17.1-7.6-17.1-17.1S15.6,7.9,25,7.9c9.4,0,17.1,7.6,17.1,17.1
		C42,34.4,34.4,42,25,42.1z"/>
	<path id="Path_32" class="st0" d="M27.8,36.4c0,1.6-1.3,2.8-2.8,2.8c-1.6,0-2.8-1.3-2.8-2.8c0-1.6,1.3-2.8,2.8-2.8l0,0
		C26.6,33.5,27.8,34.8,27.8,36.4C27.8,36.4,27.8,36.4,27.8,36.4"/>
	<path id="Path_33" class="st0" d="M25,10.8c-1.5-0.1-2.8,1-2.8,2.5c0,0.1,0,0.2,0,0.3v14.2c0,1.6,1.3,2.8,2.9,2.8
		c1.6,0,2.8-1.3,2.8-2.8V13.6c0.1-1.5-1-2.8-2.5-2.8C25.2,10.8,25.1,10.8,25,10.8z"/>
</g>
</svg>
