<?xml version="1.0" encoding="utf-8"?>
<!-- Generator: Adobe Illustrator 25.4.1, SVG Export Plug-In . SVG Version: 6.00 Build 0)  -->
<svg version="1.1" id="圖層_1" xmlns="http://www.w3.org/2000/svg" xmlns:xlink="http://www.w3.org/1999/xlink" x="0px" y="0px"
	 viewBox="0 0 50 50" style="enable-background:new 0 0 50 50;" xml:space="preserve">
<style type="text/css">
	.st0{fill:#7B7B7B;}
</style>
<path class="st0" d="M44.1,22c-0.3-5.1-2.5-9.8-6.3-13.2S29.1,3.6,24,3.8C13.4,4.4,5.3,13.4,5.9,24l3.6-0.2
	C9,15.2,15.6,7.8,24.2,7.4c4.2-0.2,8.2,1.2,11.2,4c3.1,2.8,4.9,6.6,5.1,10.8c0.2,4.2-1.2,8.2-4,11.2c-2.2,2.4-5,4-8.1,4.7l2.4-5.7
	L27.6,31l-4.6,10.8l10.8,4.6l1.4-3.3l-4.4-1.9c3.2-1,6.1-2.9,8.4-5.4C42.7,32,44.4,27.1,44.1,22z"/>
</svg>
