<?xml version="1.0" encoding="utf-8"?>
<!-- Generator: Adobe Illustrator 25.4.1, SVG Export Plug-In . SVG Version: 6.00 Build 0)  -->
<svg version="1.1" id="圖層_1" xmlns="http://www.w3.org/2000/svg" xmlns:xlink="http://www.w3.org/1999/xlink" x="0px" y="0px"
	 viewBox="0 0 60 60" style="enable-background:new 0 0 60 60;" xml:space="preserve">
<style type="text/css">
	.st0{fill:#FFFFFF;}
</style>
<g id="Group_784" transform="translate(118.89 -798.204)">
	<path id="Path_22" class="st0" d="M-87.3,840.4v-3.6l-3.6,0l0,3.6L-87.3,840.4z"/>
	<path id="Path_23" class="st0" d="M-98.2,830v-3.6l-3.6,0l0,3.6L-98.2,830z"/>
	<path id="Path_24" class="st0" d="M-76.4,830v-3.6l-3.6,0l0,3.6L-76.4,830z"/>
	<path id="Path_25" class="st0" d="M-87.3,830v-3.6l-3.6,0l0,3.6L-87.3,830z"/>
	<path id="Path_26" class="st0" d="M-98.2,840.4v-3.6l-3.6,0l0,3.6L-98.2,840.4z"/>
	<path id="Path_27" class="st0" d="M-106.7,842.8c0,1.4,1.1,2.5,2.5,2.5h30.7c1.4,0,2.5-1.1,2.5-2.5v-21.2h-35.6V842.8z
		 M-81.9,826.4c0-1,0.8-1.9,1.9-1.9h3.7c1,0,1.9,0.8,1.9,1.9v3.7c0,1-0.8,1.9-1.9,1.9H-80c-1,0-1.9-0.8-1.9-1.9V826.4z M-81,835.6
		l2.7,2.7l2.7-2.7l1.3,1.3l-4.1,4.1l-4.1-4.1L-81,835.6z M-92.8,826.4c0-1,0.8-1.9,1.9-1.9h3.7c1,0,1.9,0.8,1.9,1.9v3.7
		c0,1-0.8,1.8-1.9,1.8c0,0,0,0,0,0H-91c-1,0-1.9-0.8-1.9-1.9L-92.8,826.4z M-92.8,836.7c0-1,0.8-1.8,1.9-1.8h3.7
		c1,0,1.8,0.8,1.9,1.8v3.7c0,1-0.8,1.8-1.9,1.8c0,0,0,0,0,0H-91c-1,0-1.9-0.8-1.9-1.8L-92.8,836.7z M-103.7,826.4
		c0-1,0.8-1.9,1.9-1.9h3.7c1,0,1.9,0.8,1.9,1.9v3.7c0,1-0.8,1.9-1.9,1.9h-3.7c-1,0-1.9-0.8-1.9-1.9V826.4z M-103.7,836.7
		c0-1,0.8-1.8,1.9-1.8h3.7c1,0,1.8,0.8,1.9,1.8v3.7c0,1-0.8,1.8-1.9,1.8h-3.7c-1,0-1.8-0.8-1.9-1.8V836.7z"/>
	<path id="Path_28" class="st0" d="M-73.5,814.4h-3.7v2.3c0,0.5-0.4,0.9-0.9,0.9c-0.5,0-0.9-0.4-0.9-0.9v-2.3h-19.5v2.3
		c0,0.5-0.4,0.9-0.9,0.9c-0.5,0-0.9-0.4-0.9-0.9v-2.3h-3.7c-1.4,0-2.5,1.1-2.5,2.5v2.8h35.6v-2.8C-71.1,815.5-72.2,814.4-73.5,814.4
		z"/>
	<path id="Path_29" class="st0" d="M-88.9,798.2c-16.6,0-30,13.4-30,30s13.4,30,30,30s30-13.4,30-30S-72.3,798.2-88.9,798.2z
		 M-69.2,842.7c0,2.4-1.9,4.3-4.3,4.3h-30.7c-2.4,0-4.3-1.9-4.3-4.3v-25.9c0-2.4,1.9-4.3,4.3-4.3h3.7v-2.3c0-0.5,0.4-0.9,0.9-0.9
		c0.5,0,0.9,0.4,0.9,0.9v2.3h19.5v-2.3c0-0.5,0.4-0.9,0.9-0.9c0.5,0,0.9,0.4,0.9,0.9v2.3h3.7c2.4,0,4.3,1.9,4.3,4.3L-69.2,842.7z"/>
</g>
</svg>
