<?xml version="1.0" encoding="utf-8"?>
<!-- Generator: Adobe Illustrator 25.4.1, SVG Export Plug-In . SVG Version: 6.00 Build 0)  -->
<svg version="1.1" id="圖層_1" xmlns="http://www.w3.org/2000/svg" xmlns:xlink="http://www.w3.org/1999/xlink" x="0px" y="0px"
	 viewBox="0 0 50 50" style="enable-background:new 0 0 50 50;" xml:space="preserve">
<style type="text/css">
	.st0{fill:#7B7B7B;}
</style>
<path id="Path_35" class="st0" d="M22.2,6.5c-8.7,0-15.7,7-15.7,15.7c0,8.7,7,15.7,15.7,15.7c3.3,0,6.6-1.1,9.3-3l7.8,7.8
	c0.9,1,2.5,1,3.5,0.1c1-0.9,1-2.5,0.1-3.5c0,0-0.1-0.1-0.1-0.1l-7.8-7.8c5.1-7,3.6-16.8-3.5-21.9C28.8,7.5,25.5,6.5,22.2,6.5z
	 M22.2,33c-6,0-10.8-4.8-10.8-10.8c0-6,4.8-10.8,10.8-10.8c6,0,10.8,4.8,10.8,10.8c0,2.9-1.1,5.6-3.2,7.7C27.8,31.9,25.1,33,22.2,33
	L22.2,33z"/>
</svg>
