<?xml version="1.0" encoding="utf-8"?>
<!-- Generator: Adobe Illustrator 25.4.1, SVG Export Plug-In . SVG Version: 6.00 Build 0)  -->
<svg version="1.1" id="圖層_1" xmlns="http://www.w3.org/2000/svg" xmlns:xlink="http://www.w3.org/1999/xlink" x="0px" y="0px"
	 viewBox="0 0 50 50" style="enable-background:new 0 0 50 50;" xml:space="preserve">
<style type="text/css">
	.st0{fill:#FFFFFF;}
</style>
<g id="Group_530" transform="translate(-5751 -494.996)">
	<g id="Ellipse_1" transform="translate(5751 494.996)">
		<path class="st0" d="M25,48.5C12,48.5,1.5,38,1.5,25S12,1.5,25,1.5S48.5,12,48.5,25S38,48.5,25,48.5z M25,2.5
			C12.6,2.5,2.5,12.6,2.5,25c0,12.4,10.1,22.5,22.5,22.5c12.4,0,22.5-10.1,22.5-22.5C47.5,12.6,37.4,2.5,25,2.5z"/>
	</g>
	<path id="Path_34" class="st0" d="M5763.7,527.3v2.5h24.5v-15.5c0-0.9-0.4-1.7-1.1-2.1l-9.7-6.4c-0.9-0.6-2-0.6-2.9,0l-9.7,6.4
		c-0.7,0.5-1.1,1.3-1.1,2.1L5763.7,527.3z M5770.3,527.3h-4.1v-7.8h5.3v7.8H5770.3z M5781.7,527.3h-7.8v-7.8h11.9v7.8H5781.7z
		 M5785.8,514.3v2.8h-5.3v-6.4L5785.8,514.3L5785.8,514.3C5785.8,514.2,5785.8,514.3,5785.8,514.3L5785.8,514.3z M5766.2,514.2
		l9.7-6.4c0.1,0,0.1,0,0.2,0l1.9,1.3v8h-11.9L5766.2,514.2C5766.2,514.3,5766.2,514.2,5766.2,514.2L5766.2,514.2z"/>
</g>
</svg>
