<?xml version="1.0" encoding="utf-8"?>
<!-- Generator: Adobe Illustrator 25.4.1, SVG Export Plug-In . SVG Version: 6.00 Build 0)  -->
<svg version="1.1" id="圖層_1" xmlns="http://www.w3.org/2000/svg" xmlns:xlink="http://www.w3.org/1999/xlink" x="0px" y="0px"
	 viewBox="0 0 50 50" style="enable-background:new 0 0 50 50;" xml:space="preserve">
<style type="text/css">
	.st0{fill-rule:evenodd;clip-rule:evenodd;fill:#FFFFFF;}
</style>
<path id="Path_77" class="st0" d="M41.1,13.7c0.9-1.6,1.7-1.3,2-3.6c-2.3,0.4-3.8,1.9-5.6,0.8c-0.6-0.6-1.3-1-2.1-1.4
	c-3.3-1.2-6.9-0.2-9.1,2.5c-2.4,3.3-1.2,3.1-2.2,6.8c-3.2-0.3-6.3-1.2-9.2-2.7C9.1,13,10.2,11.2,7.8,11c-2.7,3.9,1.4,9.5,1.5,9.9
	L7,20.8c-0.1,1.6,0.4,3.2,1.4,4.5c1.1,1.5,2.5,1.8,3.1,3c-1,0.5-0.5-0.1-1.5,0.7c0.5,3.4,5.2,4.7,6.4,5.4c-3,2.1-6.6,3.1-10.2,2.9
	c1.7,3.5,20,8.1,29.7-5.3c5.7-7.9,4-13.1,5.2-15.2c0.4-0.6,2.2-1.9,2.5-2.7c0.3-0.8,0.2-0.4-0.1-1L41.1,13.7L41.1,13.7z"/>
</svg>
