<svg xmlns="http://www.w3.org/2000/svg" xmlns:xlink="http://www.w3.org/1999/xlink" width="179.804" height="30.5" viewBox="0 0 179.804 30.5">
  <defs>
    <clipPath id="clip-path">
      <path id="Clip_12" data-name="Clip 12" d="M0,30.5H179.8V0H0Z" transform="translate(-1)" fill="none"/>
    </clipPath>
  </defs>
  <g id="Group_32" data-name="Group 32" transform="translate(1)">
    <path id="Fill_1" data-name="Fill 1" d="M3.8,13.344H2.092V8.381H1.926a3.39,3.39,0,0,0-.495.056,9.838,9.838,0,0,0-.991.11L0,6.783l1.156-.055c.1-.139.267-.373.5-.717.314-.421.573-.773.77-1.047C1.962,4.655,1.289,4.187.477,3.61c0,0-.052-.041-.422-.3L1.1,2.04l.276.221C1.775,1.5,2.146.739,2.478,0L4.4.661c-.4.66-.958,1.494-1.651,2.481.234.158.414.284.55.386.079-.119.216-.315.386-.551a6.583,6.583,0,0,1,.55-.883l1.487.883C5.287,3.712,4.62,4.7,3.689,6.01l1.046-.331c.108.288.252.721.44,1.323.181.545.311.99.385,1.324V7.444H8.369v1.71a4.764,4.764,0,0,1-1.046,2.26h.66a.489.489,0,0,0,.551-.551V6.783H5.781V.993H7.819l.22-.938,2.2.11L9.966.993h3.028v5.79H10.406v.44c.219.439.4.847.551,1.213A17.808,17.808,0,0,0,12.444,7L13.765,8.16c-.374.337-.874.763-1.487,1.268-.174.14-.307.254-.386.331a11.108,11.108,0,0,0,1.928,1.323,13.353,13.353,0,0,0-.772,1.379l-.007.014c-.069.137-.123.246-.157.318a8.12,8.12,0,0,1-2.479-2.316v1.1c0,.952-.444,1.453-1.321,1.489-.408.036-.982.055-1.708.055-.118-.512-.229-1.012-.331-1.488a12.214,12.214,0,0,1-1.376,1.379.915.915,0,0,0-.055-.221l-.165-.415-.165-.413-.771.221a9.248,9.248,0,0,0-.331-1.268l-.131-.589,0-.022q-.122-.548-.194-.878l.991-.22.5,1.709A3.087,3.087,0,0,0,6.5,9.154H5.56V8.767l-1.1.331L4.184,8.16,3.8,8.216v5.127Zm-.22-7.223-.386.551h.551A.926.926,0,0,0,3.689,6.4a.7.7,0,0,0-.11-.276Zm4.02-1.6v.716h3.524V4.521H7.6Zm0-1.93v.717h3.524V2.592H7.6Z" transform="translate(93.879 0)" fill="#e06a0f"/>
    <path id="Fill_3" data-name="Fill 3" d="M.048,2.754A2.492,2.492,0,0,0,0,3.178l1.144.158q.143-1.377.286-3.23L.381,0Q.238,1.588.048,2.754" transform="translate(94.355 9.531)" fill="#e06a0f"/>
    <path id="Fill_5" data-name="Fill 5" d="M12.867,10.262H7.082V5.9h4.866V3.657H7.082V0H4.6V10.262H0v2.129H12.867Z" transform="translate(107.656)" fill="#e06a0f"/>
    <path id="Fill_7" data-name="Fill 7" d="M2.276,3.336,3.813,1.8Q2.39.719,1.423,0L0,1.489q.738.565,1.991,1.591c-.114-.068-.02.018.285.257" transform="translate(120.379 3.813)" fill="#e06a0f"/>
    <path id="Fill_9" data-name="Fill 9" d="M3.813,1.668q-.173-.107-.52-.377Q2.021.376,1.444,0L0,1.506Q1.443,2.637,2.253,3.336Z" transform="translate(120.855)" fill="#e06a0f"/>
    <path id="Clip_12-2" data-name="Clip 12" d="M0,30.5H177.758V0H0Z" fill="none"/>
    <g id="Group_32-2" data-name="Group 32" clip-path="url(#clip-path)">
      <path id="Fill_11" data-name="Fill 11" d="M2.14,12.868H0V2H3.458V0H5.6V2H9.055V12.866H6.915v-.812H2.14v.812ZM5.6,8v2.217H6.915V8ZM2.14,8v2.217H3.458V8ZM5.6,3.947V6.163H6.915V3.947Zm-3.457,0V6.163H3.458V3.947Z" transform="translate(125.812 0.238)" fill="#e06a0f"/>
      <path id="Fill_13" data-name="Fill 13" d="M0,4.547l2.065.7q.265-.91.742-2.567Q3.124,1.338,3.336.7L1.271,0A44.765,44.765,0,0,1,0,4.547" transform="translate(121.477 7.625)" fill="#e06a0f"/>
      <path id="Fill_14" data-name="Fill 14" d="M2.689,8.1h0a3.6,3.6,0,0,1-.108-.429Q2.527,7.458,2.312,6.6H3.549c.464,0,.7-.144.7-.429V2.307h1.99V3.595c.531-.353.93-.624,1.183-.805A18.171,18.171,0,0,1,5.27,1.394h0A12.408,12.408,0,0,1,3.011,2.9a4.634,4.634,0,0,0,.376.323,5.082,5.082,0,0,0,.754.643l-.754.644.861,1.234c-.221.074-.529.2-.915.376-1.057.4-1.848.733-2.419,1.019L.107,5.687c.1-.033.262-.1.538-.215.468-.18,1.119-.451,1.935-.8L2.46,4.547l-.417-.417c-.256-.219-.432-.377-.537-.482a.587.587,0,0,1-.215.107.649.649,0,0,0-.323.16C.861,3.7.7,3.415.484,3.058S.114,2.391,0,2.2A9.609,9.609,0,0,0,4.248,0H6.775L6.453.268a9.063,9.063,0,0,0,4.032,1.717c-.317.631-.606,1.245-.86,1.824A.65.65,0,0,0,9.463,3.7a4.374,4.374,0,0,0-.429-.161c-.287.25-.7.575-1.237.966a1.13,1.13,0,0,1-.269.215c.967.428,1.908.826,2.8,1.18L9.409,7.4c-.669-.352-1.645-.822-2.9-1.4.045.031.044.034.044.035h0A2.035,2.035,0,0,1,6.237,5.9v.59A1.405,1.405,0,0,1,4.624,8.048C4.369,8.083,3.718,8.1,2.689,8.1ZM6.237,3.756V5.633l.806-.966Z" transform="translate(139.156 5.242)" fill="#e06a0f"/>
      <path id="Fill_15" data-name="Fill 15" d="M3.336,2.152Q2.566,1.131,1.591,0L0,1.076q.513.806,1.591,2.26Z" transform="translate(136.297 3.813)" fill="#e06a0f"/>
      <path id="Fill_16" data-name="Fill 16" d="M1.223,0Q.668,2.774,0,5.1l2.113.623q.556-2.265.779-3.114.278-1.3.444-1.981Z" transform="translate(136.297 7.625)" fill="#e06a0f"/>
      <path id="Fill_17" data-name="Fill 17" d="M3.336,2.133a1.184,1.184,0,0,0-.212-.274Q2.224.657,1.694,0L0,1.039q1,1.367,1.588,2.3Z" transform="translate(136.297)" fill="#e06a0f"/>
      <path id="Fill_18" data-name="Fill 18" d="M0,4.208c.368.5.626.863.772,1.079.11.181.2.324.276.432a10.491,10.491,0,0,0,3.2-1.889v.7h2.1V4.046q1.49.81,3.034,1.673l1.1-1.4q-1.16-.593-3.256-1.457l-.883.917V2.751H9.987V1.08H6.346V0h-2.1V1.08H.663V2.751H3.2A10.1,10.1,0,0,1,0,4.208" transform="translate(139.156)" fill="#e06a0f"/>
      <path id="Fill_19" data-name="Fill 19" d="M7.116,13.344H4.8V9.191H2.319v.775H0V2.27H4.8V0H7.116V2.27h4.8v7.7H9.65V9.191H7.116v4.152Zm0-8.914v2.6H9.65V4.43Zm-4.8,0v2.6H4.8V4.43Z" transform="translate(151.07 0)" fill="#e06a0f"/>
      <path id="Fill_20" data-name="Fill 20" d="M5.242,2.365Q2.972.88,1.351,0L0,1.759q1.568.936,3.837,2.53Z" transform="translate(168.227)" fill="#e06a0f"/>
      <path id="Fill_21" data-name="Fill 21" d="M1.883,0,0,1.048q.47.828,1.569,2.759.575,1.048.785,1.435L4.289,4.083Q2.824,1.49,1.883,0" transform="translate(173.469 3.813)" fill="#e06a0f"/>
      <path id="Fill_22" data-name="Fill 22" d="M3.546,1.763V7A2.181,2.181,0,0,0,6.072,9.53h1.88q2.2.054,2.579-1.6a21.472,21.472,0,0,0,.43-2.368c-.18-.073-.43-.165-.753-.276a15.591,15.591,0,0,1-1.5-.55Q8.6,5.84,8.49,6.555a.924.924,0,0,1-.968.882H6.77c-.609.036-.9-.257-.859-.882V0H3.546V1.6L1.5.937Q1.074,2.48.215,5.288c-.108.368-.18.625-.215.772l2.041.826q.7-2.148,1.5-5.123" transform="translate(164.414 3.336)" fill="#e06a0f"/>
      <path id="Fill_23" data-name="Fill 23" d="M2.953.213A1.022,1.022,0,0,0,2.545.042,2.671,2.671,0,0,0,2.071,0H0V2.383H2.091a1.291,1.291,0,0,0,.929-.3,1.214,1.214,0,0,0,.317-.914,1.483,1.483,0,0,0-.1-.593A.865.865,0,0,0,2.953.213" transform="translate(167.273 19.063)" fill="#e06a0f"/>
      <path id="Fill_24" data-name="Fill 24" d="M1.181,0,0,3.336H2.383L1.213,0Z" transform="translate(104.844 19.539)" fill="#e06a0f"/>
      <path id="Fill_25" data-name="Fill 25" d="M.531.176A.358.358,0,0,0,.176.531.358.358,0,0,0,.531.885.358.358,0,0,0,.885.531.358.358,0,0,0,.531.176" transform="translate(111.462 18.055)" fill="#e06a0f"/>
      <path id="Fill_26" data-name="Fill 26" d="M81.492,15.25H0V0H81.492V15.249ZM40.7,3.75a3.513,3.513,0,0,0-1.5.311,3.374,3.374,0,0,0-1.125.838,3.724,3.724,0,0,0-.706,1.233,4.661,4.661,0,0,0,0,2.995,3.711,3.711,0,0,0,.706,1.233,3.3,3.3,0,0,0,1.125.834,3.576,3.576,0,0,0,1.5.306,3.481,3.481,0,0,0,1.245-.217,2.926,2.926,0,0,0,1.649-1.565,3.5,3.5,0,0,0,.288-1.213H42.606a2.962,2.962,0,0,1-.178.757,1.947,1.947,0,0,1-.377.616,1.719,1.719,0,0,1-.575.414,1.884,1.884,0,0,1-.774.15,2.126,2.126,0,0,1-1.032-.238,2.021,2.021,0,0,1-.706-.637,2.889,2.889,0,0,1-.4-.907,4.161,4.161,0,0,1,0-2.072,2.89,2.89,0,0,1,.4-.906,2.023,2.023,0,0,1,.706-.637A2.132,2.132,0,0,1,40.7,4.806a2.157,2.157,0,0,1,.717.11,1.68,1.68,0,0,1,.538.305,1.658,1.658,0,0,1,.377.467,2.652,2.652,0,0,1,.23.59h1.308a2.749,2.749,0,0,0-.324-1.067,2.609,2.609,0,0,0-.686-.792,3.078,3.078,0,0,0-.978-.5A4.035,4.035,0,0,0,40.7,3.75ZM16.425,8.631v2.625a.155.155,0,0,0,.152.15H19.7a.14.14,0,0,0,.142-.15V8.631ZM73.34,8.278h1.926A2.039,2.039,0,0,1,76,8.392a.973.973,0,0,1,.455.358,1.517,1.517,0,0,1,.231.611,5.3,5.3,0,0,1,.064.875c0,.182.008.37.025.56a1.214,1.214,0,0,0,.173.528h1.4a1.563,1.563,0,0,1-.309-.761,6.553,6.553,0,0,1-.1-1.187,2.079,2.079,0,0,0-.11-.725,1.448,1.448,0,0,0-.277-.472,1.071,1.071,0,0,0-.362-.264,1.341,1.341,0,0,0-.362-.1V7.791a3.2,3.2,0,0,0,.3-.124,1.44,1.44,0,0,0,.413-.306,1.914,1.914,0,0,0,.367-.56,2.123,2.123,0,0,0,.157-.875,1.836,1.836,0,0,0-.618-1.47A2.794,2.794,0,0,0,75.6,3.926h-3.57v7.4H73.34V8.279Zm-7.9-4.352v7.4H70.89V10.2H66.744V8.04h3.769V6.983H66.744V5.045h4.073V3.926Zm-6.92,0V5.045h2.366v6.279h1.309V5.045h2.376V3.926ZM52.864,5.884h.031l3.4,5.439h1.382v-7.4H56.433v5.45h-.021L53,3.926H51.618v7.4h1.246V5.885ZM45.075,3.926v7.4h5.454V10.2H46.384V8.04h3.769V6.983H46.384V5.045h4.073V3.926Zm-17.387,0V5.045h2.366v6.279h1.308V5.045h2.377V3.926ZM22.036,5.884h.031l3.4,5.439h1.382v-7.4H25.605v5.45h-.021l-3.413-5.45H20.79v7.4h1.246V5.885ZM10.529,9.365h2.983l.7,1.958h1.4l-2.879-7.4H11.346l-2.869,7.4H9.828l.7-1.958ZM3.139,3.926v7.4H4.447V8.485H6.436a3.25,3.25,0,0,0,1.3-.223A2.015,2.015,0,0,0,8.509,7.7a1.95,1.95,0,0,0,.372-.742,3.094,3.094,0,0,0,.1-.741,3.152,3.152,0,0,0-.1-.746,1.948,1.948,0,0,0-.372-.746,2.037,2.037,0,0,0-.774-.57,3.17,3.17,0,0,0-1.3-.228Zm15-.082a.785.785,0,0,0-.574.243.777.777,0,0,0-.214.578l.182,2.274a.667.667,0,0,1-.445.681c-.43.156-.658.392-.658.681v.13h3.42v-.14c0-.285-.234-.527-.658-.681a.675.675,0,0,1-.445-.681l.2-2.263a.784.784,0,0,0-.79-.822Z" transform="translate(93.883 14.297)" fill="#e06a0f"/>
      <path id="Fill_27" data-name="Fill 27" d="M2.935.237A1.082,1.082,0,0,0,2.512.05,2.453,2.453,0,0,0,2,0H0V2.383H1.981a1.918,1.918,0,0,0,.466-.061,1.384,1.384,0,0,0,.438-.2,1.025,1.025,0,0,0,.325-.364,1.181,1.181,0,0,0,.125-.57,1.38,1.38,0,0,0-.11-.585A.937.937,0,0,0,2.935.237" transform="translate(98.172 19.539)" fill="#e06a0f"/>
      <path id="Fill_28" data-name="Fill 28" d="M21.871,19.539H0V15.262H8.844V14.007H.956V9.73H8.765V8.357H.956V5.022h2.59L4.622,3.649H.678V0H21.115V3.453H19.64l1.952,3.06c.33.5.412.91.245,1.22-.319.593-1.421.623-1.639.623H14.023V9.73h7.212v4.08H14.023V15.3h7.849v4.237ZM10.836,3.453,9.88,4.748h5.538l-.836-1.295H10.836Z" transform="translate(69.578 10.008)" fill="#e06a0f"/>
      <path id="Fill_29" data-name="Fill 29" d="M23.25,31a22.309,22.309,0,0,1-5.633-.886V25.081c-.673-.582-1.386-1.2-2.076-1.8-.744-.647-1.512-1.315-2.238-1.942l1.538-1.611h-2.3v-1.54l-2.037,1.339V30.477H6.031V21.74L2.2,23.23.2,19c1.046-.324,5.025-1.907,5.792-2.255V10.428H5.153A31.292,31.292,0,0,1,4.4,14.321v0c-.049.213-.092.395-.123.531L0,14.212c.927-2.5,1.4-6.645,1.4-12.319H5.633V5.758h.4V.2h4.394V5.878H12.9V2.7h6.192V0H23.57V2.658h6.392V7.206H23.729V8.858H31v4.509H28.043v1.69H31v4.751H28.083v6.32a4.5,4.5,0,0,1-1.005,3.5A5.055,5.055,0,0,1,23.25,31Zm-4.473-5.315a6.839,6.839,0,0,0,3.121.778,7.2,7.2,0,0,0,1.352-.133v-6.6H18.107c1.485,1.346,3.168,3,3.185,3.02ZM11.545,13.527h0l1.185,1.611H23.449V13.367H11.7V10.428H10.665v3.7l.879-.6ZM12.9,7.208v1.73h6.232V7.208Z" fill="#e06a0f"/>
      <path id="Fill_30" data-name="Fill 30" d="M27.874,3.559H15.808V0h-4.46V3.717H1.832l-.04,4.389h9.317C10.354,16.093,6.69,22.1,0,26.691l3.384,3.321c8.362-6.049,10.911-11.269,12.3-21.906h9.637v7.75a33.753,33.753,0,0,1-.637,6.011c-.279,2.57-1.673,3.519-3.823,3.519A24.621,24.621,0,0,1,13.9,24.358v4.824a34.734,34.734,0,0,0,6.291.83c2.708.119,5.893-.711,7.207-2.57,2.827-2.965,2.469-11.269,2.628-15.1V5.5a1.894,1.894,0,0,0-2.15-1.938" transform="translate(31.93)" fill="#e06a0f"/>
      <path id="Fill_31" data-name="Fill 31" d="M5.149,29.547H0c2.147-2.46,2.292-5.113,2.476-8.472L2.5,20.73V0H29.07V8.419H7.01V19.181c0,4.441-1.081,8.873-1.861,10.366ZM6.891,3.3V5.242H24.437V3.3H6.891Z" transform="translate(62.43 0.477)" fill="#e06a0f"/>
    </g>
  </g>
</svg>
